# Blender v242 OBJ File: FreetarButton.blend
# www.blender3d.org
mtllib Track2Button.mtl
o Circle_Circle
v -0.260653 -0.339479 0.001000
v -0.356059 -0.182155 0.001000
v -0.356514 0.493252 0.001000
v 0.354784 0.493252 0.001000
v 0.356059 -0.182154 0.001000
v 0.260653 -0.339478 0.001000
v 0.095406 -0.429999 0.001000
v -0.095405 -0.429999 0.001000
v -0.260653 -0.339479 0.131767
v -0.356059 -0.182155 0.131767
v -0.356514 0.493252 0.131767
v 0.354784 0.493252 0.131767
v 0.356059 -0.182154 0.131767
v 0.260653 -0.339478 0.131767
v 0.095406 -0.430310 0.131767
v -0.095405 -0.430310 0.131767
v -0.154037 -0.155334 0.252666
v -0.122908 -0.219356 0.252666
v -0.154037 0.014411 0.252666
v -0.154775 0.311395 0.252666
v 0.146327 0.311395 0.252666
v 0.147359 0.014411 0.252666
v 0.147359 -0.155334 0.252666
v 0.116230 -0.219356 0.252666
v 0.030446 -0.256319 0.252666
v -0.031812 -0.256320 0.252666
v -0.209304 -0.290592 0.209464
v -0.285915 -0.164261 0.209464
v -0.285268 0.401444 0.209464
v 0.285268 0.401444 0.209464
v 0.285915 -0.164261 0.209464
v 0.209305 -0.290592 0.209464
v 0.076611 -0.363529 0.209464
v -0.076610 -0.363529 0.209464
v -0.154775 0.311395 0.274811
v 0.146327 0.311395 0.274811
v -0.122908 -0.219356 0.274811
v -0.031812 -0.256320 0.274811
v 0.030446 -0.256319 0.274811
v 0.116230 -0.219356 0.274811
v 0.147359 -0.155334 0.274811
v 0.147359 0.014411 0.274811
v -0.154037 0.014411 0.274811
v -0.154037 -0.155334 0.274811
vn 0.902737 0.251839 -0.348704
vn 0.550615 0.151463 -0.820856
vn 0.399396 0.420362 -0.814692
vn 0.650136 0.677786 -0.343303
vn 0.811090 0.320322 -0.489395
vn 0.592608 0.632282 -0.498978
vn -0.650136 0.677786 -0.343303
vn -0.398206 0.417463 -0.816767
vn -0.547288 0.149419 -0.823481
vn -0.903378 0.251350 -0.347392
vn -0.596728 0.624622 -0.503708
vn -0.809168 0.319742 -0.492904
vn -0.233955 0.911283 -0.338847
vn -0.144688 0.576434 -0.804193
vn -0.177801 0.832270 -0.525040
vn 0.233955 0.911283 -0.338847
vn 0.144078 0.578265 -0.803003
vn 0.170019 0.833003 -0.526444
vn 0.406110 -0.784997 -0.467788
vn 0.351482 -0.280465 -0.893185
vn -0.352336 -0.278909 -0.893307
vn -0.403363 -0.787469 -0.465987
vn 0.625111 -0.633290 -0.456221
vn -0.624592 -0.634602 -0.455092
vn 0.000000 -1.000000 0.000000
vn 0.375991 0.926623 0.000000
vn -0.000001 1.000000 0.000000
vn -0.395716 0.918373 0.000000
vn -0.899329 0.437272 0.000000
vn -1.000000 0.000000 0.000000
vn -0.999994 -0.003476 0.000000
vn 0.999997 0.002486 0.000000
vn 1.000000 0.000000 0.000000
vn 0.899329 0.437273 0.000000
vn 0.707327 -0.706839 0.000000
vn -0.706412 -0.707755 0.000000
vn 0.550462 0.588702 -0.591937
vn -0.555681 0.581683 -0.593951
vn -0.156896 0.760643 -0.629871
vn 0.148228 0.759636 -0.633198
vn 0.760552 0.175085 -0.625172
vn -0.760552 0.175085 -0.625172
vn 0.705679 0.000855 -0.708487
vn -0.705924 -0.001221 -0.708274
vn 0.577960 -0.576525 -0.577502
vn -0.576464 -0.578448 -0.577105
vn 0.691641 0.722221 0.000519
vn 0.962981 0.269509 0.000000
vn -0.691641 0.722221 0.000519
vn -0.963317 0.268288 0.000000
vn -0.248299 0.968657 0.001740
vn 0.248299 0.968657 0.001740
usemtl ButtonColor
s 1
f 10//1 28//2 27//3 9//4
f 28//2 17//5 18//6 27//3
f 14//7 32//8 31//9 13//10
f 32//8 24//11 23//12 31//9
f 15//13 33//14 32//8 14//7
f 33//14 25//15 24//11 32//8
f 16//16 34//17 33//14 15//13
f 34//17 26//18 25//15 33//14
f 9//4 27//3 34//17 16//16
f 27//3 18//6 26//18 34//17
f 20//19 29//20 30//21 21//22
f 11//23 12//24 30//21 29//20
f 21//22 30//21 31//9 23//12
f 12//24 13//10 31//9 30//21
f 17//5 28//2 29//20 20//19
f 10//1 11//23 29//20 28//2
usemtl ButtonTop
s off
f 20//25 21//25 36//25 35//25
f 26//26 18//26 37//26 38//26
f 25//27 26//27 38//27 39//27
f 24//28 25//28 39//28 40//28
f 23//29 24//29 40//29 41//29
f 22//30 23//30 41//30 42//30
f 21//31 22//31 42//31 36//31
f 19//32 20//32 35//32 43//32
f 17//33 19//33 43//33 44//33
f 18//34 17//34 44//34 37//34
s 1
f 3//35 4//36 12//24 11//23
f 37//37 40//38 39//39 38//40
f 44//41 41//42 40//38 37//37
f 44//41 43//43 42//44 41//42
f 43//43 35//45 36//46 42//44
usemtl ButtonSide
f 9//4 1//47 2//48 10//1
f 6//49 14//7 13//10 5//50
f 7//51 15//13 14//7 6//49
f 8//52 16//16 15//13 7//51
f 8//52 1//47 9//4 16//16
f 4//36 5//50 13//10 12//24
f 2//48 3//35 11//23 10//1
