<?xml version="1.0" encoding="UTF-8" standalone="no"?>
<!-- Created with Inkscape (http://www.inkscape.org/) -->
<svg
   xmlns:svg="http://www.w3.org/2000/svg"
   xmlns="http://www.w3.org/2000/svg"
   xmlns:xlink="http://www.w3.org/1999/xlink"
   version="1.0"
   width="200"
   height="400"
   id="svg1923">
  <defs
     id="defs1926">
    <linearGradient
       id="linearGradient6389">
      <stop
         style="stop-color:red;stop-opacity:0"
         offset="0"
         id="stop6391" />
      <stop
         style="stop-color:#ff8000;stop-opacity:0.51372552"
         offset="0.25"
         id="stop8169" />
      <stop
         style="stop-color:#ff1700;stop-opacity:1"
         offset="1"
         id="stop6393" />
    </linearGradient>
    <linearGradient
       x1="-12.709302"
       y1="198.14095"
       x2="193.06409"
       y2="198.14095"
       id="linearGradient6395"
       xlink:href="#linearGradient6389"
       gradientUnits="userSpaceOnUse" />
  </defs>
  <g
     style="display:inline"
     id="layer2">
    <image
       xlink:href="Flames_left__white_.png"
       x="-1.4206459e-005"
       y="-4.371218e-006"
       width="200"
       height="400"
       id="image1930" />
  </g>
  <g
     style="display:inline"
     id="layer1">
    <rect
       width="196.50392"
       height="396.50391"
       x="1.7480438"
       y="1.7480477"
       style="fill:black;fill-opacity:1;stroke:black;stroke-width:3.49608755;stroke-miterlimit:4;stroke-dasharray:none;stroke-opacity:1"
       id="rect7282" />
    <path
       d="M 49.504324,0.50522378 C 49.486518,9.9172819 55.892021,23.27029 63.548219,22.320366 C 74.531261,20.957671 75.111685,5.0684271 88.546946,1.9621532 C 98.872672,-0.42518659 105.48331,4.1942956 107.83088,10.321139 C 96.725203,2.9820297 85.59464,5.351848 79.207486,21.406082 C 88.201964,21.552534 94.804756,17.263229 98.888056,15.665344 C 104.42652,13.49802 113.69124,13.732663 118.9154,15.666464 C 110.29828,15.914611 95.706194,22.947044 96.531718,27.296178 C 97.332149,31.513116 107.10939,30.384986 113.57017,27.471605 C 127.51287,21.184375 123.77751,18.156009 127.04325,14.996724 C 129.92746,12.206542 135.34448,7.7121743 150.6904,8.2759969 C 155.1145,8.4385422 144.112,10.350752 142.76708,10.925055 C 140.3959,11.937585 134.09529,14.23632 133.14017,20.037965 C 131.94945,27.270712 129.22611,34.516926 123.97269,37.676374 C 118.71928,40.835821 110.93581,39.908503 101.81739,38.468211 C 91.387521,36.820769 77.045184,30.830837 69.668815,36.643921 C 61.723597,42.905297 71.215366,56.848516 82.105286,54.562882 C 94.601996,51.940006 105.49752,43.603931 118.75049,43.985341 C 131.49546,44.352132 141.3374,50.092925 157.23399,44.780705 C 168.99982,40.848874 169.33686,29.39913 179.35203,26.820265 C 183.80936,25.672522 200.26153,26.000757 188.26545,27.698556 C 177.95625,29.157612 175.73575,39.328558 172.22314,47.369143 C 167.23632,58.784262 152.91129,61.205846 141.22213,58.856667 C 131.59366,56.921628 122.99889,51.592406 112.56937,53.537481 C 97.16855,56.409687 110.31334,67.539963 119.80667,65.903186 C 128.18883,64.457991 141.9913,61.26738 150.57013,68.815098 C 154.51736,72.287906 165.98925,85.305397 155.45877,77.273989 C 146.80575,70.67449 132.40179,71.075721 123.61237,74.60851 C 110.50748,79.875841 95.236276,64.485544 93.208059,72.429367 C 92.001254,77.156005 104.62602,87.51114 116.61512,86.763967 C 126.86611,86.125114 140.16655,78.326801 146.38125,80.88309 C 154.38693,84.176065 157.11637,90.38275 164.48484,91.042791 C 173.20709,91.824099 171.4365,92.919565 162.24694,92.716053 C 151.58926,92.476994 143.94124,87.830831 137.44618,87.553447 C 133.83259,87.396195 131.90657,92.825017 133.65864,95.126441 C 135.99057,98.189544 140.49493,97.40911 145.74251,96.364051 C 150.27019,95.462361 171.99753,95.212999 158.0375,97.279628 C 150.41236,98.408446 143.54531,104.77446 136.00913,104.64494 C 128.7848,104.52079 122.267,97.299777 117.70967,97.056343 C 114.54304,96.887195 109.19657,97.741487 109.28889,102.26843 C 109.48976,111.81972 127.3139,114.67815 136.82965,112.78386 C 142.0613,111.7424 159.86884,110.8238 147.1958,113.31728 C 137.11574,115.30058 137.52403,119.74415 116.99364,120.54711 C 97.796743,121.28184 83.587317,109.17605 65.898893,111.47123 C 52.053318,113.26778 71.727268,128.07477 78.684834,129.63321 C 88.793352,131.89744 99.69089,126.33999 88.952247,132.10976 C 81.745273,135.982 69.77771,134.32404 57.610953,125.43227 C 52.35106,121.58821 49.351581,124.07104 50.251896,128.00551 C 50.889329,130.79116 50.956086,132.69247 53.90159,134.24176 C 60.45896,137.69084 72.638132,141.86488 77.846759,141.86677 C 80.911763,141.86791 85.855992,140.70584 90.491645,139.1294 C 98.558371,136.38616 104.84962,129.64485 102.72198,134.00915 C 100.17633,139.23089 92.387346,145.96902 84.548481,149.49093 C 77.588869,152.61781 68.394599,151.14608 65.504484,149.85907 C 61.189861,147.9377 55.547581,145.1658 54.638488,150.24666 C 53.931703,154.19684 62.461172,160.56671 68.777217,160.49398 C 87.996077,160.27266 91.330329,148.25009 103.22151,149.02426 C 119.10177,150.05813 120.59137,160.52975 132.43039,160.38615 C 136.67751,160.33464 140.79847,159.65451 144.62761,157.71086 C 148.45675,155.76721 149.76539,152.56002 149.74446,154.43113 C 149.71495,156.86458 139.7458,166.84675 131.53006,166.93468 C 116.54738,167.09501 115.34213,159.36433 105.95131,159.33118 C 95.923444,159.29542 86.287569,167.2875 81.390945,171.10538 C 72.437749,178.08615 57.097071,167.65547 56.59595,175.94582 C 56.50242,177.47507 59.383208,174.38402 65.087671,177.34776 C 67.401331,178.54982 72.342521,183.5258 78.051018,182.90712 C 83.265587,182.34197 90.60197,180.23987 95.666223,180.83613 C 100.39217,181.39257 108.28098,185.84424 111.41043,190.74573 C 113.03951,193.29728 108.36276,189.07755 104.02543,188.19024 C 97.704668,186.89717 91.415735,186.88235 87.271399,188.63342 C 83.929256,190.04555 79.651313,196.70864 70.025497,194.4457 C 55.093056,190.93522 47.691784,194.75034 47.962669,198.35123 C 48.111124,200.32465 52.324638,206.9275 61.871844,209.72524 C 68.723403,211.73304 77.292855,202.6133 87.275434,207.32425 C 94.532552,210.74902 93.080462,213.11929 95.748165,216.77001 C 99.620159,222.06879 105.20149,222.17116 106.24033,221.70213 C 109.81218,220.08947 102.05046,226.58737 99.625316,227.19735 C 91.44161,229.25575 84.050213,223.97902 82.542814,222.7457 C 81.035416,221.51237 75.437824,221.18245 69.294474,221.0806 C 54.91907,220.84388 49.525291,222.24691 49.420192,226.66298 C 49.266502,233.12074 52.726342,236.15209 58.608503,235.49006 C 64.593561,234.81645 73.480619,234.38 78.962067,235.33925 C 84.443515,236.29851 96.258866,246.94871 104.99491,246.86692 C 117.44478,246.75163 118.65666,238.68537 127.30663,238.43432 C 135.29199,238.20255 136.92958,248.59989 136.76213,251.17869 C 136.59083,253.81663 132.71254,248.25355 131.28068,246.65649 C 127.71774,242.68244 119.07156,250.61041 116.06966,252.54905 C 109.47204,256.80983 95.582998,257.13795 86.743913,250.63054 C 82.08352,247.19952 71.532895,243.77873 65.229231,245.69724 C 62.342073,246.57595 59.589656,247.10292 57.281131,250.21943 C 54.540407,253.91941 53.170045,254.46756 57.144095,253.78238 C 61.118144,253.0972 69.09174,252.51866 75.918053,253.64534 C 84.946179,255.13544 96.5043,265.63739 97.706809,267.34896 C 100.23782,270.95143 103.73128,276.66309 98.39199,272.14523 C 93.047578,267.62303 81.888364,264.32448 73.999547,265.29342 C 62.842527,266.66378 49.058959,271.32301 48.784886,278.99704 C 48.740596,280.23716 50.292284,281.73776 55.49966,281.8748 C 60.707035,282.01183 63.669542,280.262 66.462556,280.36739 C 73.725475,280.64147 79.480994,282.2859 84.140226,285.84885 C 87.758757,288.61596 91.814253,290.64512 95.925338,290.64512 C 100.03642,290.64512 106.53007,288.47963 110.58822,284.47848 C 116.99007,278.16654 113.1919,284.06738 112.23265,285.84885 C 111.2734,287.63032 111.26777,292.01155 104.14751,295.03028 C 92.73064,299.87062 89.75871,296.53767 72.629185,292.42659 C 67.563844,291.21091 60.310849,291.51071 54.540407,295.85249 C 47.932762,300.82418 48.120991,303.37433 47.96267,305.03392 C 47.170329,313.33954 52.277992,307.69956 59.47371,306.26724 C 63.117921,305.54185 69.751425,305.44502 77.973597,311.88572 C 80.823719,314.11832 85.099479,317.91532 89.484638,317.77828 C 93.869796,317.64125 95.706884,316.57457 98.803099,315.44867 C 101.81789,314.35237 106.88823,309.96722 102.36604,315.5857 C 100.67792,317.68306 98.83817,321.04051 90.992036,322.02641 C 86.741679,322.56049 72.187227,320.41958 66.188483,318.46347 C 59.884818,316.40792 53.788564,317.80612 51.936719,319.0116 C 46.390895,322.62171 53.32783,331.35473 63.584796,333.40041 C 75.793845,335.83542 91.587526,325.4783 103.7364,325.45231 C 115.7407,325.42692 116.75814,334.04307 129.91031,333.53745 C 137.05328,333.26284 142.79172,329.42635 145.66948,326.82267 C 148.54724,324.21898 141.28432,334.63373 136.76212,337.78556 C 134.16661,339.59455 124.29183,341.62258 117.30299,337.9226 C 112.04895,335.14105 108.39563,332.16708 101.81789,332.30412 C 97.46376,332.39482 89.484637,336.68928 83.866153,340.66333 C 79.180594,343.9775 72.903258,345.45959 66.599593,345.32256 C 60.295928,345.18552 54.540407,343.54108 51.662647,345.32256 C 48.784886,347.10403 45.77009,350.66697 49.607104,352.85955 C 53.444117,355.05213 55.910769,353.8188 59.610747,355.46323 C 63.310724,357.10767 64.310757,365.12904 74.684728,366.56317 C 80.934907,367.42721 89.621674,359.84839 87.840203,362.31505 C 86.058733,364.7817 83.203914,371.09504 73.314366,371.2224 C 67.858079,371.29267 65.366267,368.75575 61.118145,367.11132 C 56.870022,365.46688 52.073755,366.15206 51.936719,369.715 C 51.799683,373.27794 59.199638,379.71864 62.35147,381.36307 C 65.195576,382.84696 72.8784,382.42197 75.232872,381.63715 C 78.521742,380.54086 86.470276,375.07963 93.32165,374.92238 C 100.48904,374.76102 106.34009,379.03346 110.31414,380.95197 C 114.28819,382.87048 120.18075,383.00751 120.45482,383.55566 C 120.72889,384.1038 113.0757,386.05107 101.40679,382.73344 C 87.429095,378.75939 83.207919,392.79255 69.066243,392.32597 C 59.356361,392.00562 51.251538,386.15935 48.921923,395.20373 C 48.616194,396.39068 49.572845,397.19076 49.607104,399.86296 C 49.639843,402.4166 49.607104,405.58422 49.607104,405.58422 L -11.24031,405.42636 L -12.209302,-4.4573648 L 49.515504,-9.3023261 C 49.515504,-9.3023261 49.519461,-7.4964917 49.504324,0.50522378 z "
       style="fill:url(#linearGradient6395);fill-opacity:1;fill-rule:evenodd;stroke:black;stroke-width:1;stroke-linecap:butt;stroke-linejoin:miter;stroke-miterlimit:4;stroke-dasharray:none;stroke-opacity:1"
       id="path2827" />
  </g>
</svg>
